<svg width="22" height="22" viewBox="0 0 22 22" fill="none" xmlns="http://www.w3.org/2000/svg">
<g clip-path="url(#clip0_85020_16890)">
<path d="M21.7857 11.2537C21.7857 10.506 21.7251 9.75418 21.5958 9.01855H11.2202V13.2545H17.1618C16.9152 14.6206 16.123 15.8291 14.963 16.5971V19.3456H18.5078C20.5893 17.4297 21.7857 14.6004 21.7857 11.2537Z" fill="#4285F4"/>
<path d="M11.22 22.0006C14.1868 22.0006 16.6887 21.0265 18.5116 19.345L14.9668 16.5965C13.9806 17.2675 12.7074 17.6474 11.2241 17.6474C8.35431 17.6474 5.92109 15.7114 5.04805 13.1084H1.39014V15.9418C3.25749 19.6563 7.06091 22.0006 11.22 22.0006V22.0006Z" fill="#34A853"/>
<path d="M5.04421 13.1085C4.58343 11.7423 4.58343 10.263 5.04421 8.89684V6.06348H1.39034C-0.169827 9.17169 -0.169827 12.8336 1.39034 15.9418L5.04421 13.1085V13.1085Z" fill="#FBBC04"/>
<path d="M11.22 4.35386C12.7883 4.3296 14.304 4.91972 15.4397 6.00295L18.5803 2.8624C16.5917 0.995046 13.9523 -0.0315938 11.22 0.000741277C7.06091 0.000741277 3.25749 2.34504 1.39014 6.06357L5.044 8.89694C5.91301 6.28992 8.35027 4.35386 11.22 4.35386V4.35386Z" fill="#EA4335"/>
</g>
<defs>
<clipPath id="clip0_85020_16890">
<rect width="22" height="22" fill="white"/>
</clipPath>
</defs>
</svg>
